<svg width="235" height="53" viewBox="0 0 235 53" fill="none" xmlns="http://www.w3.org/2000/svg">
<g id="ChOfStarWars_logo">
<path d="M0.578369 51.483L1.89437 43.728C4.77704 44.4487 7.36204 44.809 9.64937 44.809C11.968 44.809 13.8324 44.715 15.2424 44.527V42.177L11.0124 41.801C7.1897 41.4563 4.5577 40.5477 3.11637 39.075C1.70637 37.571 1.00137 35.362 1.00137 32.448C1.00137 28.4373 1.86304 25.68 3.58637 24.176C5.34104 22.672 8.30204 21.92 12.4694 21.92C16.6367 21.92 20.3967 22.3117 23.7494 23.095L22.5744 30.615C19.6604 30.145 17.326 29.91 15.5714 29.91C13.8167 29.91 12.3284 29.9883 11.1064 30.145V32.448L14.4904 32.777C18.595 33.1843 21.4307 34.1713 22.9974 35.738C24.564 37.2733 25.3474 39.4197 25.3474 42.177C25.3474 44.151 25.081 45.8273 24.5484 47.206C24.0157 48.5533 23.3734 49.5873 22.6214 50.308C21.9007 50.9973 20.8667 51.53 19.5194 51.906C18.172 52.282 16.9814 52.5013 15.9474 52.564C14.9447 52.658 13.5974 52.705 11.9054 52.705C7.83204 52.705 4.05637 52.2977 0.578369 51.483Z" fill="#FFC837"/>
<path d="M49.7943 30.145H42.9793V52H33.5793V30.145H26.7643V22.625H49.7943V30.145Z" fill="#FFC837"/>
<path d="M57.73 52H47.813L55.427 22.625H69.95L77.564 52H67.647L66.566 47.347H58.811L57.73 52ZM62.43 31.649L60.503 39.874H64.827L62.947 31.649H62.43Z" fill="#FFC837"/>
<path d="M104.983 52H94.6426L90.7886 43.258H88.7676V52H79.3676V22.625H94.1726C100.909 22.625 104.278 26.056 104.278 32.918C104.278 37.618 102.821 40.72 99.9066 42.224L104.983 52ZM88.7676 30.145V36.02H90.9296C92.0576 36.02 92.8723 35.9103 93.3736 35.691C93.9063 35.4403 94.1726 34.892 94.1726 34.046V32.119C94.1726 31.273 93.9063 30.7403 93.3736 30.521C92.8723 30.2703 92.0576 30.145 90.9296 30.145H88.7676Z" fill="#FFC837"/>
<path d="M141.766 22.625H151.589L146.983 52H134.716L132.554 41.19H131.99L129.875 52H117.608L113.002 22.625H122.825L125.034 39.028H125.316L128.7 22.625H135.891L139.228 39.028H139.51L141.766 22.625Z" fill="#FFC837"/>
<path d="M160.267 52H150.35L157.964 22.625H172.487L180.101 52H170.184L169.103 47.347H161.348L160.267 52ZM164.967 31.649L163.04 39.874H167.364L165.484 31.649H164.967Z" fill="#FFC837"/>
<path d="M207.52 52H197.18L193.326 43.258H191.305V52H181.905V22.625H196.71C203.446 22.625 206.815 26.056 206.815 32.918C206.815 37.618 205.358 40.72 202.444 42.224L207.52 52ZM191.305 30.145V36.02H193.467C194.595 36.02 195.409 35.9103 195.911 35.691C196.443 35.4403 196.71 34.892 196.71 34.046V32.119C196.71 31.273 196.443 30.7403 195.911 30.521C195.409 30.2703 194.595 30.145 193.467 30.145H191.305Z" fill="#FFC837"/>
<path d="M209.646 51.483L210.962 43.728C213.844 44.4487 216.429 44.809 218.717 44.809C221.035 44.809 222.9 44.715 224.31 44.527V42.177L220.08 41.801C216.257 41.4563 213.625 40.5477 212.184 39.075C210.774 37.571 210.069 35.362 210.069 32.448C210.069 28.4373 210.93 25.68 212.654 24.176C214.408 22.672 217.369 21.92 221.537 21.92C225.704 21.92 229.464 22.3117 232.817 23.095L231.642 30.615C228.728 30.145 226.393 29.91 224.639 29.91C222.884 29.91 221.396 29.9883 220.174 30.145V32.448L223.558 32.777C227.662 33.1843 230.498 34.1713 232.065 35.738C233.631 37.2733 234.415 39.4197 234.415 42.177C234.415 44.151 234.148 45.8273 233.616 47.206C233.083 48.5533 232.441 49.5873 231.689 50.308C230.968 50.9973 229.934 51.53 228.587 51.906C227.239 52.282 226.049 52.5013 225.015 52.564C224.012 52.658 222.665 52.705 220.973 52.705C216.899 52.705 213.124 52.2977 209.646 51.483Z" fill="#FFC837"/>
<path d="M71.0826 10.824C70.6985 10.9733 70.2879 11.08 69.8505 11.144C69.4132 11.208 68.8959 11.24 68.2985 11.24C67.2639 11.24 66.4745 11.0907 65.9305 10.792C65.3865 10.4827 65.0079 9.96001 64.7945 9.22401C64.5812 8.47734 64.4745 7.40534 64.4745 6.00801C64.4745 4.60001 64.5865 3.52801 64.8105 2.79201C65.0452 2.04534 65.4452 1.52268 66.0106 1.22401C66.5759 0.914677 67.4079 0.76001 68.5065 0.76001C68.8799 0.76001 69.3066 0.797343 69.7866 0.87201C70.2772 0.93601 70.6559 1.01601 70.9225 1.11201L70.6665 2.71201C70.3145 2.62668 69.9039 2.55734 69.4345 2.50401C68.9652 2.44001 68.5812 2.40801 68.2825 2.40801C67.6532 2.40801 67.2106 2.48801 66.9546 2.64801C66.7092 2.80801 66.5865 3.12801 66.5865 3.60801V9.38401C67.1412 9.52268 67.7279 9.59201 68.3465 9.59201C69.1999 9.59201 70.0532 9.45868 70.9065 9.19201L71.0826 10.824Z" fill="#FFC837"/>
<path d="M80.4448 1.00001V11H78.4768V6.79201H74.7328V11H72.7648V1.00001H74.7328V5.28801H78.4768V1.00001H80.4448Z" fill="#FFC837"/>
<path d="M88.1184 8.90401H84.5184L83.9104 11H81.9424L84.8064 1.00001H87.8144L90.6784 11H88.7104L88.1184 8.90401ZM87.6864 7.40001L86.3904 2.84001H86.2464L84.9344 7.40001H87.6864Z" fill="#FFC837"/>
<path d="M97.6907 11L96.0907 7.60801H94.1547V11H92.1867V1.00001H96.3307C97.088 1.00001 97.6853 1.11201 98.1227 1.33601C98.56 1.56001 98.8747 1.92268 99.0667 2.42401C99.2693 2.91468 99.3707 3.59201 99.3707 4.45601C99.3707 5.23468 99.264 5.86401 99.0507 6.34401C98.8373 6.81334 98.5067 7.14934 98.0587 7.35201L99.8187 11H97.6907ZM94.1547 6.10401H96.3147C96.688 6.10401 96.944 6.05601 97.0827 5.96001C97.232 5.86401 97.3067 5.68801 97.3067 5.43201V3.30401C97.3067 3.04801 97.232 2.87201 97.0827 2.77601C96.944 2.68001 96.688 2.63201 96.3147 2.63201H94.1547V6.10401Z" fill="#FFC837"/>
<path d="M106.712 8.90401H103.112L102.504 11H100.536L103.4 1.00001H106.408L109.272 11H107.304L106.712 8.90401ZM106.28 7.40001L104.984 2.84001H104.84L103.528 7.40001H106.28Z" fill="#FFC837"/>
<path d="M117.004 10.824C116.62 10.9733 116.21 11.08 115.772 11.144C115.335 11.208 114.818 11.24 114.22 11.24C113.186 11.24 112.396 11.0907 111.852 10.792C111.308 10.4827 110.93 9.96001 110.716 9.22401C110.503 8.47734 110.396 7.40534 110.396 6.00801C110.396 4.60001 110.508 3.52801 110.732 2.79201C110.967 2.04534 111.367 1.52268 111.932 1.22401C112.498 0.914677 113.33 0.76001 114.428 0.76001C114.802 0.76001 115.228 0.797343 115.708 0.87201C116.199 0.93601 116.578 1.01601 116.844 1.11201L116.588 2.71201C116.236 2.62668 115.826 2.55734 115.356 2.50401C114.887 2.44001 114.503 2.40801 114.204 2.40801C113.575 2.40801 113.132 2.48801 112.876 2.64801C112.631 2.80801 112.508 3.12801 112.508 3.60801V9.38401C113.063 9.52268 113.65 9.59201 114.268 9.59201C115.122 9.59201 115.975 9.45868 116.828 9.19201L117.004 10.824Z" fill="#FFC837"/>
<path d="M122.111 11H120.143V2.63201H117.599V1.00001H124.671V2.63201H122.111V11Z" fill="#FFC837"/>
<path d="M128.123 9.36801H132.379V11H126.155V1.00001H132.363L132.123 2.63201H128.123V5.24001H131.771V6.76001H128.123V9.36801Z" fill="#FFC837"/>
<path d="M139.909 11L138.309 7.60801H136.373V11H134.405V1.00001H138.549C139.307 1.00001 139.904 1.11201 140.341 1.33601C140.779 1.56001 141.093 1.92268 141.285 2.42401C141.488 2.91468 141.589 3.59201 141.589 4.45601C141.589 5.23468 141.483 5.86401 141.269 6.34401C141.056 6.81334 140.725 7.14934 140.277 7.35201L142.037 11H139.909ZM136.373 6.10401H138.533C138.907 6.10401 139.163 6.05601 139.301 5.96001C139.451 5.86401 139.525 5.68801 139.525 5.43201V3.30401C139.525 3.04801 139.451 2.87201 139.301 2.77601C139.163 2.68001 138.907 2.63201 138.533 2.63201H136.373V6.10401Z" fill="#FFC837"/>
<path d="M143.491 9.19201C143.939 9.32001 144.446 9.42134 145.011 9.49601C145.576 9.56001 146.126 9.59201 146.659 9.59201C147.203 9.59201 147.763 9.56001 148.339 9.49601V7.01601L146.835 6.88801C145.896 6.81334 145.176 6.68534 144.675 6.50401C144.184 6.31201 143.838 6.02401 143.635 5.64001C143.432 5.24534 143.331 4.69601 143.331 3.99201C143.331 3.19201 143.438 2.55734 143.651 2.08801C143.864 1.61868 144.206 1.28268 144.675 1.08001C145.144 0.866677 145.784 0.76001 146.595 0.76001C147.726 0.76001 148.84 0.877343 149.939 1.11201L149.699 2.66401C148.814 2.49334 147.859 2.40801 146.835 2.40801C146.302 2.40801 145.848 2.43468 145.475 2.48801V5.00001L147.107 5.11201C147.96 5.17601 148.627 5.31468 149.107 5.52801C149.598 5.74134 149.95 6.05601 150.163 6.47201C150.376 6.88801 150.483 7.45334 150.483 8.16801C150.483 8.92534 150.355 9.52801 150.099 9.97601C149.854 10.424 149.454 10.7493 148.899 10.952C148.344 11.144 147.598 11.24 146.659 11.24C145.432 11.24 144.28 11.096 143.203 10.808L143.491 9.19201Z" fill="#FFC837"/>
<path d="M155.803 6.00801C155.803 4.54668 155.915 3.45334 156.139 2.72801C156.373 1.99201 156.784 1.48001 157.371 1.19201C157.968 0.90401 158.853 0.76001 160.027 0.76001C161.2 0.76001 162.08 0.90401 162.667 1.19201C163.253 1.48001 163.664 1.99201 163.899 2.72801C164.133 3.45334 164.251 4.54668 164.251 6.00801C164.251 7.45868 164.133 8.55201 163.899 9.28801C163.664 10.0133 163.253 10.52 162.667 10.808C162.08 11.096 161.2 11.24 160.027 11.24C158.853 11.24 157.968 11.096 157.371 10.808C156.784 10.52 156.373 10.0133 156.139 9.28801C155.915 8.56268 155.803 7.46934 155.803 6.00801ZM160.795 9.56001C161.296 9.56001 161.643 9.48001 161.835 9.32001C162.037 9.16001 162.139 8.87734 162.139 8.47201V2.44001H159.243C158.741 2.44001 158.395 2.52001 158.203 2.68001C158.011 2.84001 157.915 3.12268 157.915 3.52801V9.56001H160.795Z" fill="#FFC837"/>
<path d="M168.42 11H166.452V1.00001H172.148L171.924 2.63201H168.42V5.48001H171.508V6.98401H168.42V11Z" fill="#FFC837"/>
</g>
</svg>
